<svg xmlns="http://www.w3.org/2000/svg" viewBox="0 0 24 24" fill="currentColor" class="w-6 h-6 text-red-500"><path fill-rule="evenodd" d="M5.625 1.5H9a3.75 3.75 0 013.75 3.75v1.875c0 1.036.84 1.875 1.875 1.875H16.5a3.75 3.75 0 013.25 5.617l-3.25 2.5A2.25 2.25 0 0113 19.5H7.5A2.25 2.25 0 015.625 19.5v-18zM12.75 4.875a1.875 1.875 0 00-1.875-1.875V3H7.5v8.25h1.875a1.875 1.875 0 001.875-1.875V7.5a1.875 1.875 0 00-1.875-1.875V4.875zM12.75 15.375A.375.375 0 0112.375 15H9.75v1.5h1.5a1.125 1.125 0 100-2.25H9.75v-.75H12.375a.375.375 0 01.375.375v1.125z" clip-rule="evenodd" /><path d="M14.25 5.25a5.23 5.23 0 00-1.279-3.434 9.768 9.768 0 016.963 6.963A5.23 5.23 0 0016.5 7.5h-1.875a.375.375 0 01-.375-.375V5.25z" /></svg>
